<?xml version="1.0" encoding="utf-8"?>
<!-- Generator: Adobe Illustrator 16.0.0, SVG Export Plug-In . SVG Version: 6.00 Build 0)  -->
<!DOCTYPE svg PUBLIC "-//W3C//DTD SVG 1.1//EN" "http://www.w3.org/Graphics/SVG/1.1/DTD/svg11.dtd">
<svg version="1.1" id="Laag_1" xmlns="http://www.w3.org/2000/svg" xmlns:xlink="http://www.w3.org/1999/xlink" x="0px" y="0px"
	 width="1764px" height="1351px" viewBox="0 0 1764 1351" enable-background="new 0 0 1764 1351" xml:space="preserve">
<title>star-bg</title>
    
<style>
    .star_1{
        animation: star-blinking 10s ease infinite;
    }
    .star_2{
        animation: star-blinking 10s ease infinite;
        animation-delay: 3s;
    }
    .star_3{
        animation: star-blinking 10s ease infinite;
        animation-delay: 7s;
    }
    .star_4{
        animation: star-blinking 10s ease infinite;
        animation-delay: 2s;
    }
    .star_5{
        animation: star-blinking 10s ease infinite;
        animation-delay: 5s;
    }
    .star_6{
        animation: star-blinking 10s ease infinite;
        animation-delay: 6s;
    }
    .star_7{
        animation: star-blinking 10s ease infinite;
        animation-delay: 8s;
    }
    .star_8{
        animation: star-blinking 10s ease infinite;
        animation-delay: 1.5s;
    }
    .star_9{
        animation: star-blinking 10s ease infinite;
        animation-delay: 4.2s;
    }
    .star_10{
        animation: star-blinking 10s ease infinite;
        animation-delay: 6.8s;
    }
    .star_11{
        animation: star-blinking 10s ease infinite;
        animation-delay: 5.5s;
    }
    .star_12{
        animation: star-blinking 10s ease infinite;
        animation-delay: 9.3s;
    }
    .star_13{
        animation: star-blinking 10s ease infinite;
    }
    .star_14{
        animation: star-blinking 10s ease infinite;
        animation-delay: 3s;
    }
    .star_15{
        animation: star-blinking 10s ease infinite;
        animation-delay: 7s;
    }
    .star_16{
        animation: star-blinking 10s ease infinite;
        animation-delay: 2s;
    }
    .star_17{
        animation: star-blinking 10s ease infinite;
        animation-delay: 5s;
    }
    .star_18{
        animation: star-blinking 10s ease infinite;
        animation-delay: 6s;
    }
    .star_19{
        animation: star-blinking 10s ease infinite;
        animation-delay: 8s;
    }
    .star_20{
        animation: star-blinking 10s ease infinite;
        animation-delay: 1.5s;
    }
    .star_21{
        animation: star-blinking 10s ease infinite;
        animation-delay: 4.2s;
    }
    .star_22{
        animation: star-blinking 10s ease infinite;
        animation-delay: 6.8s;
    }
    .star_23{
        animation: star-blinking 10s ease infinite;
        animation-delay: 5.5s;
    }
    .star_24{
        animation: star-blinking 10s ease infinite;
        animation-delay: 9.3s;
    }
    .star_25{
        animation: star-blinking 10s ease infinite;
    }
    .star_26{
        animation: star-blinking 10s ease infinite;
        animation-delay: 3s;
    }
    .star_27{
        animation: star-blinking 10s ease infinite;
        animation-delay: 7s;
    }
    .star_28{
        animation: star-blinking 10s ease infinite;
        animation-delay: 2s;
    }
    .star_29{
        animation: star-blinking 10s ease infinite;
        animation-delay: 5s;
    }
    .star_30{
        animation: star-blinking 10s ease infinite;
        animation-delay: 6s;
    }
    .star_31{
        animation: star-blinking 10s ease infinite;
        animation-delay: 8s;
    }
    .star_32{
        animation: star-blinking 10s ease infinite;
        animation-delay: 1.5s;
    }
    .star_33{
        animation: star-blinking 10s ease infinite;
        animation-delay: 4.2s;
    }
    .star_34{
        animation: star-blinking 10s ease infinite;
        animation-delay: 6.8s;
    }
    .star_35{
        animation: star-blinking 10s ease infinite;
        animation-delay: 5.5s;
    }
    .star_36{
        animation: star-blinking 10s ease infinite;
        animation-delay: 9.3s;
    }
    .star_37{
        animation: star-blinking 10s ease infinite;
    }
    .star_38{
        animation: star-blinking 10s ease infinite;
        animation-delay: 3s;
    }
    .star_39{
        animation: star-blinking 10s ease infinite;
        animation-delay: 7s;
    }
    .star_40{
        animation: star-blinking 10s ease infinite;
        animation-delay: 2s;
    }
    .star_41{
        animation: star-blinking 10s ease infinite;
        animation-delay: 5s;
    }
    .star_42{
        animation: star-blinking 10s ease infinite;
        animation-delay: 6s;
    }
    .star_43{
        animation: star-blinking 10s ease infinite;
        animation-delay: 8s;
    }
    .star_44{
        animation: star-blinking 10s ease infinite;
        animation-delay: 1.5s;
    }
    .star_45{
        animation: star-blinking 10s ease infinite;
        animation-delay: 4.2s;
    }
    .star_46{
        animation: star-blinking 10s ease infinite;
        animation-delay: 6.8s;
    }
    .star_47{
        animation: star-blinking 10s ease infinite;
        animation-delay: 5.5s;
    }
    .star_48{
        animation: star-blinking 10s ease infinite;
        animation-delay: 5.5s;
    }
    .star_49{
        animation: star-blinking 10s ease infinite;
        animation-delay: 5.5s;
    }
    .star_50{
        animation: star-blinking 10s ease infinite;
        animation-delay: 9.3s;
    }
    .star_51{
        animation: star-blinking 10s ease infinite;
        animation-delay: 1.5s;
    }
    .star_52{
        animation: star-blinking 10s ease infinite;
        animation-delay: 4.2s;
    }
    .star_53{
        animation: star-blinking 10s ease infinite;
        animation-delay: 6.8s;
    }
    .star_54{
        animation: star-blinking 10s ease infinite;
        animation-delay: 5.5s;
    }
    .star_55{
        animation: star-blinking 10s ease infinite;
        animation-delay: 9.3s;
    }
    .star_56{
        animation: star-blinking 10s ease infinite;
    }
    .star_57{
        animation: star-blinking 10s ease infinite;
        animation-delay: 3s;
    }
    .star_58{
        animation: star-blinking 10s ease infinite;
        animation-delay: 7s;
    }
    .star_59{
        animation: star-blinking 10s ease infinite;
        animation-delay: 2s;
    }
    .star_60{
        animation: star-blinking 10s ease infinite;
        animation-delay: 5s;
    }
    .star_61{
        animation: star-blinking 10s ease infinite;
        animation-delay: 6s;
    }
    .star_62{
        animation: star-blinking 10s ease infinite;
        animation-delay: 8s;
    }
    .star_63{
        animation: star-blinking 10s ease infinite;
        animation-delay: 1.5s;
    }
    .star_64{
        animation: star-blinking 10s ease infinite;
        animation-delay: 4.2s;
    }
    .star_65{
        animation: star-blinking 10s ease infinite;
        animation-delay: 6.8s;
    }
    .star_66{
        animation: star-blinking 10s ease infinite;
        animation-delay: 5.5s;
    }
    .star_67{
        animation: star-blinking 10s ease infinite;
        animation-delay: 9.3s;
    }
    .star_68{
        animation: star-blinking 10s ease infinite;
    }
    .star_69{
        animation: star-blinking 10s ease infinite;
        animation-delay: 3s;
    }
    .star_70{
        animation: star-blinking 10s ease infinite;
        animation-delay: 7s;
    }
    .star_71{
        animation: star-blinking 10s ease infinite;
        animation-delay: 2s;
    }
    .star_72{
        animation: star-blinking 10s ease infinite;
        animation-delay: 5s;
    }
    .star_73{
        animation: star-blinking 10s ease infinite;
        animation-delay: 6s;
    }
    .star_74{
        animation: star-blinking 10s ease infinite;
        animation-delay: 8s;
    }
    .star_75{
        animation: star-blinking 10s ease infinite;
        animation-delay: 1.5s;
    }
    .star_76{
        animation: star-blinking 10s ease infinite;
        animation-delay: 4.2s;
    }
    .star_77{
        animation: star-blinking 10s ease infinite;
        animation-delay: 6.8s;
    }
    .star_78{
        animation: star-blinking 10s ease infinite;
        animation-delay: 5.5s;
    }
    .star_79{
        animation: star-blinking 10s ease infinite;
        animation-delay: 8.2s;
    }
    .star_80{
        animation: star-blinking 10s ease infinite;
        animation-delay: 5.5s;
    }
    .star_81{
        animation: star-blinking 10s ease infinite;
        animation-delay: 9.3s;
    }
    .star_82{
        animation: star-blinking 10s ease infinite;
        animation-delay: 5.5s;
    }
    .star_83{
        animation: star-blinking 10s ease infinite;
        animation-delay: 8.2s;
    }
    .star_80{
        animation: star-blinking 10s ease infinite;
        animation-delay: 5.5s;
    }
    .star_84{
        animation: star-blinking 10s ease infinite;
        animation-delay: 9.3s;
    }
    .star_85{
        animation: star-blinking 10s ease infinite;
        animation-delay: 5.5s;
    }
    .star_86{
        animation: star-blinking 10s ease infinite;
        animation-delay: 8.2s;
    }
    .star_80{
        animation: star-blinking 10s ease infinite;
        animation-delay: 5.5s;
    }
    .star_87{
        animation: star-blinking 10s ease infinite;
        animation-delay: 9.3s;
    }
    .star_88{
        animation: star-blinking 10s ease infinite;
        animation-delay: 9.3s;
    }
    
    @keyframes star-blinking{
        0%{
            opacity: 1;
        }
        50%{
            opacity: 0;
        }
        100%{
            opacity: 1;
        }
    }
</style>
    
<path class="star_1" fill="#0088E3" d="M1045.548,92.116c0.066-0.037,0.12-0.09,0.156-0.157l1.508-2.754c0.036-0.066,0.091-0.121,0.157-0.157
	c0.19-0.104,0.43-0.034,0.533,0.157l1.507,2.754c0.036,0.066,0.091,0.121,0.157,0.157l2.755,1.508
	c0.065,0.036,0.119,0.089,0.154,0.155c0.105,0.19,0.036,0.43-0.154,0.535l-2.755,1.505c-0.066,0.037-0.121,0.093-0.157,0.16
	l-1.508,2.755c-0.036,0.066-0.091,0.121-0.157,0.157c-0.19,0.104-0.429,0.034-0.533-0.157l-1.507-2.756
	c-0.036-0.065-0.09-0.12-0.156-0.156l-2.756-1.508c-0.064-0.036-0.118-0.089-0.154-0.155c-0.105-0.19-0.036-0.43,0.154-0.535
	L1045.548,92.116"/>
<path class="star_2" fill="#FCD05C" d="M1524.467,166.722c0.065-0.036,0.121-0.09,0.158-0.156l0.743-1.36c0.036-0.065,0.091-0.12,0.155-0.155
	c0.191-0.105,0.432-0.036,0.537,0.155l0.742,1.36c0.037,0.066,0.092,0.12,0.158,0.155l1.359,0.744
	c0.065,0.036,0.119,0.09,0.155,0.156c0.105,0.191,0.036,0.431-0.155,0.537l-1.359,0.743c-0.066,0.036-0.121,0.091-0.158,0.157
	l-0.742,1.36c-0.037,0.066-0.092,0.121-0.158,0.158c-0.19,0.104-0.43,0.033-0.534-0.158l-0.743-1.36
	c-0.035-0.066-0.09-0.121-0.156-0.157l-1.359-0.743c-0.065-0.036-0.119-0.09-0.155-0.156c-0.105-0.191-0.036-0.431,0.155-0.537
	l1.359-0.745"/>
<path class="star_3" fill="none" stroke="#A133FF" stroke-width="1.097" stroke-linecap="round" stroke-linejoin="round" d="M1355.526,109.47
	l-1.472-1.47 M1351.526,105.472l-1.47-1.472 M1353.983,108.163c0.724-0.724,0.724-1.896,0-2.62s-1.896-0.724-2.62,0
	s-0.724,1.896,0,2.62S1353.26,108.887,1353.983,108.163L1353.983,108.163z"/>
<path class="star_4" fill="#0088E3" d="M801.548,138.119c0.066-0.036,0.12-0.09,0.156-0.156l1.508-2.755c0.036-0.066,0.091-0.121,0.157-0.157
	c0.19-0.104,0.43-0.034,0.533,0.157l1.507,2.755c0.036,0.066,0.091,0.12,0.157,0.156l2.755,1.508
	c0.065,0.036,0.119,0.09,0.154,0.155c0.105,0.19,0.036,0.43-0.154,0.535l-2.755,1.505c-0.066,0.036-0.121,0.09-0.157,0.157
	l-1.508,2.756c-0.036,0.066-0.091,0.121-0.157,0.157c-0.19,0.104-0.429,0.034-0.533-0.157l-1.507-2.754
	c-0.035-0.067-0.09-0.123-0.156-0.16l-2.756-1.507c-0.064-0.036-0.118-0.089-0.154-0.155c-0.105-0.19-0.036-0.43,0.154-0.535
	l2.756-1.507"/>
<path class="star_5" fill="#FFCC33" d="M618.548,177.119c0.066-0.037,0.119-0.091,0.156-0.157l1.509-2.756c0.035-0.065,0.089-0.119,0.154-0.155
	c0.19-0.105,0.431-0.036,0.535,0.155l1.506,2.755c0.037,0.066,0.092,0.12,0.158,0.156l2.755,1.508
	c0.066,0.036,0.121,0.09,0.157,0.157c0.104,0.19,0.033,0.429-0.157,0.533l-2.753,1.507c-0.067,0.036-0.122,0.09-0.16,0.156
	l-1.506,2.756c-0.036,0.068-0.092,0.124-0.159,0.16c-0.191,0.103-0.43,0.032-0.533-0.16l-1.506-2.756
	c-0.036-0.066-0.09-0.12-0.156-0.156l-2.755-1.508c-0.064-0.036-0.118-0.089-0.154-0.155c-0.105-0.19-0.036-0.43,0.154-0.535
	l2.755-1.507"/>
<path class="star_6" fill="#FFCC33" d="M680.468,100.722c0.064-0.036,0.119-0.09,0.156-0.156l0.744-1.36c0.036-0.065,0.09-0.12,0.156-0.155
	c0.19-0.105,0.431-0.036,0.536,0.155l0.743,1.36c0.036,0.066,0.091,0.12,0.156,0.155l1.36,0.744c0.065,0.036,0.119,0.09,0.155,0.156
	c0.105,0.191,0.036,0.431-0.155,0.537l-1.36,0.743c-0.065,0.036-0.12,0.091-0.156,0.157l-0.743,1.36
	c-0.036,0.066-0.091,0.121-0.157,0.158c-0.191,0.104-0.431,0.033-0.535-0.158l-0.743-1.36c-0.036-0.066-0.09-0.121-0.155-0.157
	l-1.36-0.743c-0.065-0.036-0.119-0.09-0.155-0.156c-0.105-0.191-0.036-0.431,0.155-0.537l1.36-0.745"/>
<path class="star_7" fill="#0088E3" d="M556.714,253.907c-0.001-1.606,1.3-2.908,2.905-2.909c1.606-0.001,2.908,1.3,2.909,2.906
	c0.001,1.606-1.3,2.908-2.906,2.909C558.017,256.814,556.714,255.513,556.714,253.907 M1648.549,319.118
	c0.065-0.036,0.119-0.089,0.156-0.156l1.508-2.756c0.035-0.066,0.09-0.121,0.156-0.157c0.19-0.104,0.43-0.034,0.533,0.157
	l1.507,2.755c0.036,0.065,0.091,0.12,0.157,0.155l2.755,1.507c0.066,0.036,0.121,0.091,0.157,0.157
	c0.104,0.191,0.034,0.431-0.157,0.535l-2.755,1.507c-0.066,0.036-0.121,0.09-0.157,0.156l-1.508,2.755
	c-0.036,0.066-0.091,0.121-0.157,0.157c-0.189,0.104-0.429,0.034-0.533-0.157l-1.506-2.755c-0.037-0.065-0.092-0.12-0.156-0.156
	l-2.756-1.507c-0.067-0.036-0.122-0.091-0.158-0.158c-0.104-0.191-0.033-0.43,0.158-0.534l2.756-1.507"/>
<path class="star_8" fill="#FCD05C" d="M1557.467,452.722c0.065-0.036,0.121-0.09,0.158-0.155l0.743-1.36c0.036-0.065,0.091-0.119,0.155-0.155
	c0.191-0.105,0.432-0.036,0.537,0.155l0.742,1.36c0.037,0.065,0.092,0.119,0.158,0.154l1.359,0.744
	c0.065,0.036,0.119,0.09,0.155,0.155c0.105,0.191,0.036,0.432-0.155,0.537l-1.359,0.743c-0.066,0.036-0.121,0.09-0.158,0.156
	l-0.742,1.36c-0.037,0.066-0.092,0.121-0.158,0.157c-0.19,0.104-0.43,0.034-0.534-0.157l-0.743-1.36
	c-0.035-0.065-0.09-0.12-0.156-0.156l-1.359-0.743c-0.065-0.036-0.119-0.09-0.155-0.155c-0.105-0.191-0.036-0.432,0.155-0.537
	l1.359-0.745"/>
<path class="star_9" fill="#FCD05C" d="M129.468,382.722c0.064-0.036,0.119-0.09,0.156-0.156l0.744-1.36c0.036-0.065,0.09-0.12,0.156-0.155
	c0.19-0.105,0.431-0.036,0.536,0.155l0.743,1.36c0.036,0.066,0.091,0.12,0.156,0.155l1.36,0.744c0.065,0.036,0.119,0.09,0.155,0.156
	c0.105,0.191,0.036,0.431-0.155,0.537l-1.36,0.743c-0.065,0.036-0.12,0.091-0.156,0.157l-0.743,1.36
	c-0.036,0.066-0.091,0.121-0.157,0.158c-0.191,0.104-0.431,0.033-0.535-0.158l-0.743-1.36c-0.036-0.066-0.09-0.121-0.155-0.157
	l-1.36-0.743c-0.065-0.036-0.119-0.09-0.155-0.156c-0.105-0.191-0.036-0.431,0.155-0.537l1.36-0.745"/>
<path class="star_10" fill="none" stroke="#E98333" stroke-width="1.097" stroke-linecap="round" stroke-linejoin="round" d="M1349.859,388.554
	l-0.887-3.554l3.554,0.888L1349.859,388.554z"/>
<path class="star_11" fill="none" stroke="#A133FF" stroke-width="1.097" stroke-linecap="round" stroke-linejoin="round" d="M1109.667,202.255
	c-0.041,0.078-0.104,0.142-0.182,0.183c-0.213,0.112-0.477,0.03-0.588-0.183l-0.846-1.6c-0.041-0.076-0.104-0.139-0.181-0.18
	l-1.6-0.847c-0.31-0.163-0.31-0.605,0-0.768l1.6-0.847c0.077-0.041,0.14-0.104,0.181-0.18l0.845-1.6
	c0.041-0.078,0.104-0.142,0.183-0.183c0.213-0.112,0.476-0.03,0.587,0.183l0.848,1.6c0.041,0.076,0.104,0.139,0.18,0.18l1.6,0.847
	c0.078,0.041,0.142,0.104,0.183,0.182c0.111,0.212,0.03,0.474-0.183,0.586l-1.6,0.848c-0.076,0.041-0.139,0.104-0.18,0.18
	L1109.667,202.255L1109.667,202.255z"/>
<path class="star_12" fill="#0088E3" d="M1169.548,161.119c0.066-0.036,0.12-0.09,0.156-0.156l1.508-2.755c0.036-0.066,0.091-0.121,0.157-0.157
	c0.19-0.104,0.43-0.034,0.533,0.157l1.507,2.755c0.036,0.066,0.091,0.12,0.157,0.156l2.755,1.508
	c0.065,0.036,0.119,0.09,0.154,0.155c0.105,0.19,0.036,0.43-0.154,0.535l-2.755,1.505c-0.066,0.036-0.121,0.09-0.157,0.157
	l-1.508,2.756c-0.036,0.066-0.091,0.121-0.157,0.157c-0.19,0.104-0.429,0.034-0.533-0.157l-1.507-2.754
	c-0.035-0.067-0.09-0.123-0.156-0.16l-2.756-1.507c-0.064-0.036-0.118-0.089-0.154-0.155c-0.105-0.19-0.036-0.43,0.154-0.535
	l2.756-1.507"/>
<path class="star_13" fill="#0088E3" d="M1463.713,56.907c0-1.606,1.301-2.908,2.906-2.909s2.908,1.3,2.909,2.906c0.001,1.606-1.3,2.908-2.905,2.909
	C1465.017,59.814,1463.715,58.513,1463.713,56.907"/>
<path class="star_14" fill="none" stroke="#A133FF" stroke-width="1.097" stroke-linecap="round" stroke-linejoin="round" d="M1712.668,205.255
	c-0.041,0.078-0.105,0.142-0.184,0.183c-0.212,0.112-0.475,0.03-0.587-0.183l-0.847-1.6c-0.04-0.076-0.104-0.139-0.18-0.18
	l-1.6-0.847c-0.311-0.163-0.311-0.605,0-0.768l1.6-0.847c0.076-0.041,0.139-0.104,0.18-0.18l0.846-1.6
	c0.041-0.078,0.104-0.142,0.183-0.183c0.212-0.112,0.476-0.03,0.587,0.183l0.848,1.6c0.041,0.076,0.104,0.139,0.18,0.18l1.6,0.847
	c0.078,0.041,0.141,0.104,0.182,0.182c0.112,0.212,0.031,0.474-0.182,0.586l-1.6,0.848c-0.076,0.041-0.139,0.104-0.18,0.18
	l-0.848,1.6L1712.668,205.255z"/>
<path class="star_15" fill="#0088E3" d="M72.548,261.118c0.066-0.036,0.12-0.09,0.156-0.156l1.509-2.756c0.036-0.066,0.09-0.121,0.156-0.157
	c0.19-0.104,0.43-0.034,0.533,0.157l1.506,2.755c0.037,0.066,0.092,0.12,0.158,0.155l2.755,1.507
	c0.066,0.036,0.121,0.091,0.157,0.157c0.104,0.191,0.034,0.431-0.157,0.535l-2.753,1.507c-0.067,0.036-0.123,0.09-0.16,0.156
	l-1.506,2.755c-0.036,0.068-0.092,0.123-0.159,0.16c-0.191,0.103-0.43,0.031-0.533-0.16l-1.506-2.755
	c-0.035-0.066-0.09-0.12-0.156-0.156l-2.755-1.507c-0.065-0.036-0.119-0.09-0.155-0.155c-0.105-0.191-0.035-0.432,0.155-0.537
	l2.755-1.507"/>
<path class="star_16" fill="none" stroke="#A133FF" stroke-width="1.097" stroke-linecap="round" stroke-linejoin="round" d="M126.468,223.724
	c0.065-0.037,0.12-0.091,0.156-0.157l0.744-1.36c0.036-0.065,0.09-0.12,0.156-0.155c0.19-0.105,0.431-0.036,0.536,0.155l0.743,1.36
	c0.036,0.066,0.091,0.121,0.156,0.157l1.36,0.743c0.065,0.036,0.119,0.09,0.155,0.156c0.105,0.191,0.036,0.431-0.155,0.537
	l-1.36,0.743c-0.065,0.036-0.12,0.09-0.156,0.156l-0.743,1.36c-0.036,0.065-0.09,0.12-0.155,0.155
	c-0.191,0.105-0.432,0.036-0.537-0.155l-0.743-1.36c-0.036-0.066-0.09-0.121-0.155-0.157l-1.36-0.744
	c-0.065-0.036-0.119-0.09-0.155-0.156c-0.105-0.191-0.036-0.431,0.155-0.537l1.36-0.743"/>
<path class="star_17" fill="#FCD05C" d="M100.468,116.722c0.064-0.036,0.119-0.09,0.156-0.156l0.744-1.36c0.036-0.065,0.09-0.12,0.156-0.155
	c0.19-0.105,0.431-0.036,0.536,0.155l0.743,1.36c0.036,0.066,0.091,0.12,0.156,0.155l1.36,0.744c0.065,0.036,0.119,0.09,0.155,0.156
	c0.105,0.191,0.036,0.431-0.155,0.537l-1.36,0.743c-0.065,0.036-0.12,0.091-0.156,0.157l-0.743,1.36
	c-0.036,0.066-0.091,0.121-0.157,0.158c-0.191,0.104-0.431,0.033-0.535-0.158l-0.743-1.36c-0.036-0.066-0.09-0.121-0.155-0.157
	l-1.36-0.743c-0.065-0.036-0.119-0.09-0.155-0.156c-0.105-0.191-0.036-0.431,0.155-0.537l1.36-0.745"/>
<g transform="translate(1580 434)">
	<defs>
		<filter id="Adobe_OpacityMaskFilter" filterUnits="userSpaceOnUse" x="-1403.255" y="-0.482" width="6.718" height="6.721">
			<feColorMatrix  type="matrix" values="1 0 0 0 0  0 1 0 0 0  0 0 1 0 0  0 0 0 1 0"/>
		</filter>
	</defs>
	<mask maskUnits="userSpaceOnUse" x="-1403.255" y="-0.482" width="6.718" height="6.721" id="b">
		<g filter="url(#Adobe_OpacityMaskFilter)">
			<path class="star_18" id="a" fill="#FFFFFF" d="M-1402.704,0.066h5.62V5.69h-5.62V0.066L-1402.704,0.066z"/>
		</g>
	</mask>
	<path class="star_19" mask="url(#b)" fill="none" stroke="#A133FF" stroke-width="1.097" stroke-linecap="round" stroke-linejoin="round" d="
		M-1401.143,1.788c0.067-0.036,0.121-0.09,0.157-0.156l0.742-1.359c0.037-0.067,0.092-0.122,0.158-0.158
		c0.191-0.104,0.431-0.033,0.534,0.158l0.745,1.359c0.036,0.066,0.09,0.121,0.156,0.157l1.359,0.744
		c0.066,0.036,0.12,0.09,0.156,0.155c0.104,0.191,0.035,0.432-0.156,0.536l-1.359,0.743c-0.065,0.036-0.119,0.091-0.155,0.156
		l-0.744,1.36c-0.036,0.066-0.091,0.121-0.157,0.157c-0.191,0.104-0.431,0.033-0.534-0.157l-0.743-1.36
		c-0.037-0.065-0.092-0.12-0.157-0.156l-1.36-0.743c-0.066-0.036-0.121-0.091-0.157-0.157c-0.104-0.191-0.033-0.431,0.157-0.534
		l1.36-0.743"/>
</g>
<path class="star_20" fill="#FCD05C" d="M378.545,483.12c0.068-0.036,0.122-0.091,0.16-0.158l1.509-2.756c0.035-0.066,0.09-0.121,0.156-0.157
	c0.19-0.104,0.43-0.033,0.533,0.157l1.506,2.755c0.036,0.066,0.091,0.121,0.157,0.157l2.755,1.507
	c0.066,0.036,0.121,0.091,0.156,0.157c0.104,0.19,0.034,0.429-0.156,0.533l-2.755,1.507c-0.067,0.035-0.122,0.09-0.158,0.155
	l-1.506,2.756c-0.036,0.067-0.092,0.123-0.159,0.159c-0.191,0.103-0.43,0.031-0.533-0.159l-1.505-2.756
	c-0.036-0.065-0.091-0.12-0.157-0.155l-2.755-1.507c-0.064-0.036-0.118-0.09-0.154-0.155c-0.105-0.19-0.036-0.43,0.154-0.535
	l2.755-1.507"/>
<path class="star_21" fill="#0088E3" d="M489.649,338.646c0.063-0.035,0.115-0.087,0.15-0.15l0.71-1.3c0.034-0.064,0.088-0.118,0.152-0.152
	c0.183-0.099,0.411-0.03,0.509,0.152l0.711,1.3c0.035,0.063,0.087,0.115,0.149,0.15l1.3,0.71c0.062,0.034,0.113,0.085,0.148,0.148
	c0.101,0.182,0.034,0.412-0.148,0.512l-1.3,0.712c-0.063,0.034-0.116,0.085-0.151,0.148l-0.711,1.3
	c-0.034,0.062-0.085,0.114-0.147,0.148c-0.183,0.101-0.411,0.035-0.512-0.148l-0.71-1.298c-0.035-0.063-0.087-0.115-0.15-0.15
	l-1.3-0.712c-0.261-0.14-0.261-0.516,0-0.66L489.649,338.646"/>
<path class="star_22" fill="#FCD05C" d="M269.468,406.722c0.064-0.036,0.119-0.09,0.156-0.155l0.744-1.36c0.036-0.065,0.09-0.119,0.156-0.155
	c0.19-0.105,0.431-0.036,0.536,0.155l0.743,1.36c0.036,0.065,0.091,0.119,0.156,0.154l1.36,0.744
	c0.065,0.036,0.119,0.09,0.155,0.155c0.105,0.191,0.036,0.432-0.155,0.537l-1.36,0.743c-0.065,0.036-0.12,0.09-0.156,0.156
	l-0.743,1.36c-0.036,0.066-0.091,0.121-0.157,0.157c-0.191,0.104-0.431,0.034-0.535-0.157l-0.743-1.36
	c-0.036-0.065-0.09-0.12-0.155-0.156l-1.36-0.743c-0.065-0.036-0.119-0.09-0.155-0.155c-0.105-0.191-0.036-0.432,0.155-0.537
	l1.36-0.745"/>
<g transform="translate(1598 622)">
	<defs>
		<filter id="Adobe_OpacityMaskFilter_1_" filterUnits="userSpaceOnUse" x="-1443.081" y="0.696" width="9.938" height="9.937">
			<feColorMatrix  type="matrix" values="1 0 0 0 0  0 1 0 0 0  0 0 1 0 0  0 0 0 1 0"/>
		</filter>
	</defs>
	<mask maskUnits="userSpaceOnUse" x="-1443.081" y="0.696" width="9.938" height="9.937" id="d">
		<g filter="url(#Adobe_OpacityMaskFilter_1_)">
			<path class="star_23" id="c" fill="#FFFFFF" d="M-1433.144,10.635h-9.938V0.697h9.938V10.635z"/>
		</g>
	</mask>
	<path class="star_24" mask="url(#d)" fill="#0088E3" d="M-1440.123,3.813c0.067-0.036,0.122-0.091,0.158-0.157l1.508-2.756
		c0.036-0.065,0.09-0.119,0.155-0.155c0.19-0.104,0.43-0.036,0.535,0.155l1.507,2.756c0.036,0.066,0.09,0.12,0.156,0.157
		l2.757,1.507c0.065,0.035,0.119,0.089,0.154,0.154c0.105,0.19,0.036,0.431-0.154,0.535l-2.755,1.508
		c-0.066,0.036-0.121,0.091-0.157,0.157l-1.51,2.755c-0.036,0.065-0.09,0.119-0.154,0.155c-0.191,0.104-0.431,0.035-0.536-0.155
		l-1.506-2.753c-0.036-0.066-0.091-0.121-0.157-0.157l-2.755-1.51c-0.064-0.036-0.118-0.089-0.154-0.154
		c-0.105-0.19-0.036-0.431,0.154-0.535L-1440.123,3.813"/>
</g>
<g>
	<path class="star_25" fill="none" stroke="#E98333" stroke-width="1.097" stroke-linecap="round" stroke-linejoin="round" d="M1694.526,514.47
		l-1.472-1.47 M1690.526,510.47l-1.47-1.47 M1692.983,510.543c-0.724-0.724-1.896-0.724-2.62,0s-0.724,1.896,0,2.62
		s1.896,0.724,2.62,0S1693.707,511.267,1692.983,510.543z"/>
</g>
<path class="star_26" fill="#FCD05C" d="M1524.467,1200.902c0.066,0.035,0.121,0.09,0.158,0.155l0.743,1.36c0.15,0.273,0.542,0.273,0.692,0
	l0.742-1.36c0.037-0.066,0.092-0.12,0.158-0.156l1.359-0.744c0.065-0.036,0.119-0.09,0.155-0.155
	c0.105-0.191,0.036-0.432-0.155-0.537l-1.359-0.743c-0.066-0.036-0.121-0.091-0.158-0.157l-0.742-1.359
	c-0.037-0.066-0.092-0.121-0.158-0.158c-0.19-0.104-0.43-0.033-0.534,0.158l-0.743,1.359c-0.035,0.066-0.09,0.121-0.156,0.157
	l-1.359,0.743c-0.065,0.036-0.119,0.09-0.155,0.155c-0.105,0.191-0.036,0.432,0.155,0.537l1.359,0.743"/>
<path class="star_27" fill="#0088E3" d="M556.714,1132.905c-0.002,1.605,1.299,2.908,2.905,2.909c1.605,0.001,2.908-1.3,2.909-2.905l0,0
	c0.001-1.605-1.3-2.908-2.906-2.909C558.017,1129.999,556.714,1131.301,556.714,1132.905"/>
<path class="star_28" fill="#FCD05C" d="M1557.467,793.902c0.066,0.036,0.121,0.09,0.158,0.155l0.743,1.36c0.15,0.273,0.542,0.273,0.692,0
	l0.742-1.36c0.037-0.065,0.092-0.118,0.158-0.155l1.359-0.745c0.065-0.036,0.119-0.09,0.155-0.155
	c0.105-0.191,0.036-0.432-0.155-0.537l-1.359-0.742c-0.066-0.036-0.121-0.091-0.158-0.157l-0.742-1.36
	c-0.037-0.066-0.092-0.121-0.158-0.157c-0.19-0.104-0.43-0.034-0.534,0.157l-0.743,1.36c-0.036,0.065-0.09,0.119-0.156,0.155
	l-1.359,0.743c-0.065,0.036-0.119,0.09-0.155,0.155c-0.105,0.191-0.036,0.432,0.155,0.537l1.359,0.744"/>
<path class="star_29" fill="#0088E3" d="M307.548,1061.821c0.066,0.035,0.12,0.09,0.156,0.155l1.509,2.756c0.146,0.273,0.54,0.273,0.689,0
	l1.506-2.754c0.036-0.066,0.092-0.121,0.158-0.156l2.755-1.507c0.066-0.036,0.121-0.091,0.158-0.158
	c0.104-0.19,0.033-0.43-0.158-0.534l-2.753-1.507c-0.067-0.035-0.123-0.09-0.16-0.156l-1.506-2.755
	c-0.036-0.067-0.092-0.123-0.159-0.16c-0.191-0.103-0.43-0.031-0.533,0.16l-1.506,2.755c-0.035,0.066-0.09,0.12-0.156,0.156
	l-2.755,1.507c-0.065,0.036-0.12,0.091-0.156,0.157c-0.104,0.191-0.035,0.431,0.156,0.536L307.548,1061.821"/>
<path class="star_30" fill="none" stroke="#A133FF" stroke-width="1.097" stroke-linecap="round" stroke-linejoin="round" d="M361.468,1085.902
	c0.065,0.036,0.12,0.091,0.156,0.156l0.744,1.36c0.15,0.272,0.542,0.272,0.692,0l0.743-1.36c0.037-0.066,0.091-0.121,0.156-0.156
	l1.36-0.743c0.065-0.036,0.119-0.09,0.155-0.155c0.105-0.191,0.036-0.432-0.155-0.537l-1.36-0.745
	c-0.065-0.036-0.12-0.09-0.156-0.155l-0.743-1.36c-0.036-0.065-0.09-0.119-0.155-0.155c-0.191-0.105-0.432-0.036-0.537,0.155
	l-0.743,1.36c-0.036,0.064-0.09,0.118-0.155,0.154l-1.36,0.744c-0.065,0.036-0.119,0.09-0.155,0.155
	c-0.105,0.191-0.036,0.432,0.155,0.537l1.36,0.743"/>
<path class="star_31" fill="none" stroke="#7B63AB" stroke-width="1.097" stroke-linecap="round" stroke-linejoin="round" d="M1712.668,1174.233
	c-0.041-0.078-0.105-0.142-0.184-0.183c-0.212-0.112-0.475-0.03-0.587,0.183l-0.847,1.6c-0.04,0.076-0.104,0.14-0.18,0.18
	l-1.6,0.848c-0.078,0.041-0.141,0.104-0.182,0.182c-0.111,0.212-0.031,0.475,0.182,0.586l1.6,0.847
	c0.076,0.041,0.139,0.104,0.18,0.181l0.846,1.6c0.165,0.311,0.607,0.311,0.77,0l0.848-1.6c0.039-0.076,0.104-0.14,0.18-0.181
	l1.6-0.847c0.078-0.041,0.141-0.104,0.182-0.182c0.112-0.212,0.031-0.475-0.182-0.586l-1.6-0.849
	c-0.076-0.041-0.139-0.104-0.18-0.18l-0.848-1.6L1712.668,1174.233z"/>
<path class="star_32" fill="#0088E3" d="M72.548,1110.821c0.066,0.035,0.12,0.09,0.156,0.155l1.509,2.756c0.146,0.273,0.54,0.273,0.689,0
	l1.506-2.754c0.036-0.066,0.092-0.121,0.158-0.156l2.755-1.507c0.066-0.036,0.121-0.091,0.158-0.158
	c0.104-0.19,0.033-0.43-0.158-0.534l-2.753-1.507c-0.067-0.035-0.123-0.09-0.16-0.156l-1.506-2.755
	c-0.036-0.067-0.092-0.123-0.159-0.16c-0.191-0.103-0.43-0.031-0.533,0.16l-1.506,2.755c-0.035,0.066-0.09,0.12-0.156,0.156
	l-2.755,1.507c-0.065,0.036-0.12,0.091-0.156,0.157c-0.104,0.191-0.035,0.431,0.156,0.536L72.548,1110.821"/>
<path class="star_33" fill="none" stroke="#A133FF" stroke-width="1.097" stroke-linecap="round" stroke-linejoin="round" d="M126.468,1155.902
	c0.065,0.036,0.12,0.091,0.156,0.156l0.744,1.36c0.15,0.272,0.542,0.272,0.692,0l0.743-1.36c0.037-0.066,0.091-0.121,0.156-0.156
	l1.36-0.743c0.065-0.036,0.119-0.09,0.155-0.155c0.105-0.191,0.036-0.432-0.155-0.537l-1.36-0.745
	c-0.065-0.036-0.12-0.09-0.156-0.155l-0.743-1.36c-0.036-0.065-0.09-0.119-0.155-0.155c-0.191-0.105-0.432-0.036-0.537,0.155
	l-0.743,1.36c-0.036,0.064-0.09,0.118-0.155,0.154l-1.36,0.744c-0.065,0.036-0.119,0.09-0.155,0.155
	c-0.105,0.191-0.036,0.432,0.155,0.537l1.36,0.743"/>
<path class="star_34" fill="#0088E3" d="M151.649,1349.727c0.063,0.035,0.115,0.087,0.15,0.15l0.71,1.3c0.034,0.065,0.088,0.118,0.152,0.153
	c0.183,0.098,0.411,0.029,0.509-0.153l0.711-1.3c0.035-0.062,0.087-0.115,0.149-0.15l1.3-0.71c0.064-0.034,0.116-0.087,0.15-0.15
	c0.101-0.183,0.033-0.411-0.15-0.511l-1.3-0.711c-0.063-0.034-0.116-0.086-0.151-0.149l-0.711-1.3
	c-0.034-0.062-0.085-0.113-0.147-0.148c-0.183-0.101-0.411-0.034-0.512,0.148l-0.71,1.3c-0.035,0.063-0.087,0.115-0.15,0.149
	l-1.3,0.713c-0.062,0.034-0.113,0.085-0.147,0.147c-0.102,0.183-0.035,0.411,0.147,0.513L151.649,1349.727"/>
<path class="star_35" fill="#FCD05C" d="M100.468,1249.902c0.065,0.035,0.12,0.09,0.156,0.155l0.744,1.36c0.15,0.273,0.542,0.273,0.692,0l0.743-1.36
	c0.037-0.066,0.091-0.12,0.156-0.156l1.36-0.744c0.065-0.036,0.119-0.09,0.155-0.155c0.105-0.191,0.036-0.432-0.155-0.537
	l-1.36-0.743c-0.065-0.036-0.12-0.091-0.156-0.157l-0.743-1.359c-0.036-0.066-0.091-0.121-0.157-0.158
	c-0.191-0.104-0.431-0.033-0.535,0.158l-0.743,1.359c-0.036,0.066-0.09,0.121-0.155,0.157l-1.36,0.743
	c-0.065,0.036-0.119,0.09-0.155,0.155c-0.105,0.191-0.036,0.432,0.155,0.537l1.36,0.743"/>
<g transform="matrix(1 0 0 -1 1587 986)">
	<defs>
		<filter id="Adobe_OpacityMaskFilter_2_" filterUnits="userSpaceOnUse" x="-1417.255" y="-6.238" width="6.718" height="6.721">
			<feColorMatrix  type="matrix" values="1 0 0 0 0  0 1 0 0 0  0 0 1 0 0  0 0 0 1 0"/>
		</filter>
	</defs>
	<mask maskUnits="userSpaceOnUse" x="-1417.255" y="-6.238" width="6.718" height="6.721" id="f">
		<g filter="url(#Adobe_OpacityMaskFilter_2_)">
			<path class="star_36" id="e" fill="#FFFFFF" d="M-1416.704,0.066h5.62V5.69h-5.62V0.066L-1416.704,0.066z"/>
		</g>
	</mask>
	<path class="star_37" mask="url(#f)" fill="none" stroke="#A133FF" stroke-width="1.097" stroke-linecap="round" stroke-linejoin="round" d="
		M-1415.143,1.788c0.067-0.036,0.121-0.09,0.157-0.156l0.742-1.36c0.037-0.066,0.092-0.121,0.158-0.157
		c0.191-0.104,0.431-0.033,0.534,0.157l0.745,1.36c0.036,0.066,0.09,0.121,0.156,0.157l1.359,0.744
		c0.066,0.036,0.12,0.09,0.156,0.155c0.104,0.191,0.035,0.432-0.156,0.536l-1.359,0.743c-0.065,0.036-0.119,0.091-0.155,0.156
		l-0.744,1.36c-0.036,0.066-0.091,0.121-0.157,0.157c-0.191,0.104-0.431,0.033-0.534-0.157l-0.743-1.36
		c-0.037-0.065-0.092-0.12-0.157-0.156l-1.36-0.743c-0.066-0.036-0.121-0.091-0.157-0.157c-0.104-0.191-0.033-0.431,0.157-0.534
		l1.36-0.743"/>
</g>
<g>
	<path class="star_38" fill="none" stroke="#A133FF" stroke-width="1.097" stroke-linecap="round" stroke-linejoin="round" d="M596.746,912.22
		l2.78,2.78 M604.746,920.22l2.78,2.78 M601.918,912.905c0-0.997-5.482,4.485-4.485,4.485c-0.997,0,4.485,5.484,4.485,4.488
		c0,0.997,5.483-4.487,4.487-4.487C607.402,917.392,601.919,911.909,601.918,912.905L601.918,912.905z"/>
</g>
<path class="star_39" fill="#FCD05C" d="M378.545,770.821c0.067,0.036,0.124,0.091,0.16,0.157l1.509,2.756c0.146,0.273,0.539,0.273,0.689,0
	l1.506-2.754c0.036-0.066,0.091-0.121,0.157-0.157l2.755-1.508c0.066-0.036,0.121-0.091,0.156-0.157
	c0.104-0.19,0.034-0.43-0.156-0.533l-2.755-1.507c-0.067-0.036-0.122-0.091-0.158-0.157l-1.506-2.755
	c-0.036-0.067-0.092-0.123-0.159-0.16c-0.191-0.103-0.43-0.031-0.533,0.16l-1.505,2.755c-0.036,0.066-0.091,0.12-0.157,0.156
	l-2.755,1.506c-0.066,0.036-0.121,0.091-0.157,0.157c-0.104,0.191-0.033,0.431,0.157,0.535l2.755,1.507"/>
<path class="star_40" fill="#0088E3" d="M489.649,962.727c0.063,0.035,0.115,0.088,0.15,0.15l0.71,1.3c0.034,0.065,0.088,0.118,0.152,0.153
	c0.183,0.098,0.411,0.029,0.509-0.153l0.711-1.3c0.035-0.062,0.087-0.115,0.149-0.15l1.3-0.71c0.064-0.034,0.116-0.087,0.15-0.15
	c0.101-0.183,0.033-0.411-0.15-0.511l-1.3-0.711c-0.063-0.034-0.116-0.086-0.151-0.149l-0.711-1.3
	c-0.034-0.062-0.085-0.113-0.147-0.148c-0.183-0.101-0.411-0.034-0.512,0.148l-0.71,1.3c-0.035,0.063-0.087,0.115-0.15,0.149
	l-1.3,0.713c-0.062,0.034-0.113,0.085-0.147,0.147c-0.102,0.182-0.035,0.411,0.147,0.512L489.649,962.727"/>
<path class="star_41" fill="#FCD05C" d="M269.468,873.902c0.065,0.036,0.12,0.09,0.156,0.155l0.744,1.36c0.15,0.273,0.542,0.273,0.692,0l0.743-1.36
	c0.037-0.065,0.091-0.118,0.156-0.155l1.36-0.745c0.065-0.036,0.119-0.09,0.155-0.155c0.105-0.191,0.036-0.432-0.155-0.537
	l-1.36-0.742c-0.066-0.036-0.12-0.091-0.156-0.157l-0.743-1.36c-0.036-0.066-0.091-0.121-0.157-0.157
	c-0.191-0.104-0.431-0.034-0.535,0.157l-0.743,1.36c-0.036,0.065-0.09,0.119-0.155,0.155l-1.36,0.743
	c-0.065,0.036-0.119,0.09-0.155,0.155c-0.105,0.191-0.036,0.432,0.155,0.537l1.36,0.744"/>
<g>
	<path class="star_42" fill="none" stroke="#E98333" stroke-width="1.097" stroke-linecap="round" stroke-linejoin="round" d="M1694.526,719.53
		l-1.472,1.47 M1690.526,723.53l-1.47,1.47"/>
</g>
<path class="star_43" fill="#FCD05C" d="M622.468,325.722c0.064-0.036,0.119-0.09,0.156-0.155l0.744-1.36c0.036-0.065,0.09-0.119,0.156-0.155
	c0.19-0.105,0.431-0.036,0.536,0.155l0.743,1.36c0.036,0.065,0.091,0.119,0.156,0.154l1.36,0.744
	c0.065,0.036,0.119,0.09,0.155,0.155c0.105,0.191,0.036,0.432-0.155,0.537l-1.36,0.743c-0.065,0.036-0.12,0.09-0.156,0.156
	l-0.743,1.36c-0.036,0.066-0.091,0.121-0.157,0.157c-0.191,0.104-0.431,0.034-0.535-0.157l-0.743-1.36
	c-0.036-0.065-0.09-0.12-0.155-0.156l-1.36-0.743c-0.065-0.036-0.119-0.09-0.155-0.155c-0.105-0.191-0.036-0.432,0.155-0.537
	l1.36-0.745"/>
<path class="star_44" fill="#FCD05C" d="M622.468,325.722c0.064-0.036,0.119-0.09,0.156-0.155l0.744-1.36c0.036-0.065,0.09-0.119,0.156-0.155
	c0.19-0.105,0.431-0.036,0.536,0.155l0.743,1.36c0.036,0.065,0.091,0.119,0.156,0.154l1.36,0.744
	c0.065,0.036,0.119,0.09,0.155,0.155c0.105,0.191,0.036,0.432-0.155,0.537l-1.36,0.743c-0.065,0.036-0.12,0.09-0.156,0.156
	l-0.743,1.36c-0.036,0.066-0.091,0.121-0.157,0.157c-0.191,0.104-0.431,0.034-0.535-0.157l-0.743-1.36
	c-0.036-0.065-0.09-0.12-0.155-0.156l-1.36-0.743c-0.065-0.036-0.119-0.09-0.155-0.155c-0.105-0.191-0.036-0.432,0.155-0.537
	l1.36-0.745"/>
<path class="star_45" fill="#FCD05C" d="M708.468,504.722c0.064-0.036,0.119-0.09,0.156-0.155l0.744-1.36c0.036-0.065,0.09-0.119,0.156-0.155
	c0.19-0.105,0.431-0.036,0.536,0.155l0.743,1.36c0.036,0.065,0.091,0.119,0.156,0.154l1.36,0.744
	c0.065,0.036,0.119,0.09,0.155,0.155c0.105,0.191,0.036,0.432-0.155,0.537l-1.36,0.743c-0.065,0.036-0.12,0.09-0.156,0.156
	l-0.743,1.36c-0.036,0.066-0.091,0.121-0.157,0.157c-0.191,0.104-0.431,0.034-0.535-0.157l-0.743-1.36
	c-0.036-0.065-0.09-0.12-0.155-0.156l-1.36-0.743c-0.065-0.036-0.119-0.09-0.155-0.155c-0.105-0.191-0.036-0.432,0.155-0.537
	l1.36-0.745"/>
<path class="star_46" fill="#FCD05C" d="M708.468,504.722c0.064-0.036,0.119-0.09,0.156-0.155l0.744-1.36c0.036-0.065,0.09-0.119,0.156-0.155
	c0.19-0.105,0.431-0.036,0.536,0.155l0.743,1.36c0.036,0.065,0.091,0.119,0.156,0.154l1.36,0.744
	c0.065,0.036,0.119,0.09,0.155,0.155c0.105,0.191,0.036,0.432-0.155,0.537l-1.36,0.743c-0.065,0.036-0.12,0.09-0.156,0.156
	l-0.743,1.36c-0.036,0.066-0.091,0.121-0.157,0.157c-0.191,0.104-0.431,0.034-0.535-0.157l-0.743-1.36
	c-0.036-0.065-0.09-0.12-0.155-0.156l-1.36-0.743c-0.065-0.036-0.119-0.09-0.155-0.155c-0.105-0.191-0.036-0.432,0.155-0.537
	l1.36-0.745"/>
<path class="star_47" fill="#FCD05C" d="M541.688,674.41c0.064-0.036,0.119-0.09,0.156-0.155l0.744-1.36c0.036-0.065,0.09-0.119,0.156-0.155
	c0.19-0.105,0.431-0.036,0.536,0.155l0.743,1.36c0.036,0.065,0.091,0.119,0.156,0.154l1.36,0.744
	c0.065,0.036,0.119,0.09,0.155,0.155c0.105,0.191,0.036,0.432-0.155,0.537l-1.36,0.743c-0.065,0.036-0.12,0.09-0.156,0.156
	l-0.743,1.36c-0.036,0.066-0.091,0.121-0.157,0.157c-0.191,0.104-0.431,0.034-0.535-0.157l-0.743-1.36
	c-0.036-0.065-0.09-0.12-0.155-0.156l-1.36-0.743c-0.065-0.036-0.119-0.09-0.155-0.155c-0.105-0.191-0.036-0.432,0.155-0.537
	l1.36-0.745"/>
<path class="star_48" fill="#FCD05C" d="M544.498,432.976c0.064-0.036,0.119-0.09,0.156-0.155l0.744-1.36c0.036-0.065,0.09-0.119,0.156-0.155
	c0.19-0.105,0.431-0.036,0.536,0.155l0.743,1.36c0.036,0.065,0.091,0.119,0.156,0.154l1.36,0.744
	c0.065,0.036,0.119,0.09,0.155,0.155c0.105,0.191,0.036,0.432-0.155,0.537l-1.36,0.743c-0.065,0.036-0.12,0.09-0.156,0.156
	l-0.743,1.36c-0.036,0.066-0.091,0.121-0.157,0.157c-0.191,0.104-0.431,0.034-0.535-0.157l-0.743-1.36
	c-0.036-0.065-0.09-0.12-0.155-0.156l-1.36-0.743c-0.065-0.036-0.119-0.09-0.155-0.155c-0.105-0.191-0.036-0.432,0.155-0.537
	l1.36-0.745"/>
<path class="star_49" fill="#FCD05C" d="M807.278,387.464c0.064-0.036,0.119-0.09,0.156-0.155l0.744-1.36c0.036-0.065,0.09-0.119,0.156-0.155
	c0.19-0.105,0.431-0.036,0.536,0.155l0.743,1.36c0.036,0.065,0.091,0.119,0.156,0.154l1.36,0.744
	c0.065,0.036,0.119,0.09,0.155,0.155c0.105,0.191,0.036,0.432-0.155,0.537l-1.36,0.743c-0.065,0.036-0.12,0.09-0.156,0.156
	l-0.743,1.36c-0.036,0.066-0.091,0.121-0.157,0.157c-0.191,0.104-0.431,0.034-0.535-0.157l-0.743-1.36
	c-0.036-0.065-0.09-0.12-0.155-0.156l-1.36-0.743c-0.065-0.036-0.119-0.09-0.155-0.155c-0.105-0.191-0.036-0.432,0.155-0.537
	l1.36-0.745"/>
<path class="star_50" fill="#0088E3" d="M326.548,335.118c0.066-0.036,0.12-0.09,0.156-0.156l1.509-2.756c0.036-0.066,0.09-0.121,0.156-0.157
	c0.19-0.104,0.43-0.034,0.533,0.157l1.506,2.755c0.037,0.066,0.092,0.12,0.158,0.155l2.755,1.507
	c0.066,0.036,0.121,0.091,0.157,0.157c0.104,0.191,0.034,0.431-0.157,0.535l-2.753,1.507c-0.067,0.036-0.123,0.09-0.16,0.156
	l-1.506,2.755c-0.036,0.068-0.092,0.123-0.159,0.16c-0.191,0.103-0.43,0.031-0.533-0.16l-1.506-2.755
	c-0.035-0.066-0.09-0.12-0.156-0.156l-2.755-1.507c-0.065-0.036-0.119-0.09-0.155-0.155c-0.105-0.191-0.035-0.432,0.155-0.537
	l2.755-1.507"/>
<path class="star_51" fill="none" stroke="#A133FF" stroke-width="1.097" stroke-linecap="round" stroke-linejoin="round" d="M470.344,244.177
	c0.066-0.036,0.12-0.09,0.156-0.156l1.509-2.756c0.036-0.066,0.09-0.121,0.156-0.157c0.19-0.104,0.43-0.034,0.533,0.157l1.506,2.755
	c0.037,0.066,0.092,0.12,0.158,0.155l2.755,1.507c0.066,0.036,0.121,0.091,0.157,0.157c0.104,0.191,0.034,0.431-0.157,0.535
	l-2.753,1.507c-0.067,0.036-0.123,0.09-0.16,0.156l-1.506,2.755c-0.036,0.068-0.092,0.123-0.159,0.16
	c-0.191,0.103-0.43,0.031-0.533-0.16l-1.506-2.755c-0.035-0.066-0.09-0.12-0.156-0.156l-2.755-1.507
	c-0.065-0.036-0.119-0.09-0.155-0.155c-0.105-0.191-0.035-0.432,0.155-0.537l2.755-1.507"/>
<path class="star_52" fill="none" stroke="#A133FF" stroke-width="1.097" stroke-linecap="round" stroke-linejoin="round" d="M254.249,669
	c-0.065,0.036-0.121,0.091-0.158,0.156l-0.743,1.36c-0.036,0.065-0.091,0.119-0.155,0.155c-0.191,0.105-0.432,0.035-0.537-0.155
	l-0.742-1.36c-0.037-0.065-0.092-0.119-0.158-0.155l-1.359-0.743c-0.065-0.036-0.119-0.091-0.155-0.156
	c-0.105-0.19-0.036-0.431,0.155-0.536l1.359-0.743c0.066-0.036,0.121-0.091,0.158-0.157l0.742-1.359
	c0.037-0.066,0.092-0.121,0.158-0.158c0.19-0.104,0.43-0.033,0.534,0.158l0.743,1.359c0.035,0.066,0.09,0.121,0.156,0.157
	l1.359,0.743c0.065,0.036,0.119,0.09,0.155,0.155c0.105,0.191,0.036,0.432-0.155,0.537l-1.359,0.744"/>
<path class="star_53" fill="none" stroke="#A133FF" stroke-width="1.097" stroke-linecap="round" stroke-linejoin="round" d="M1098.248,735
	c-0.064,0.035-0.119,0.09-0.156,0.156l-0.744,1.359c-0.036,0.064-0.09,0.119-0.156,0.154c-0.19,0.105-0.431,0.037-0.536-0.154
	l-0.743-1.359c-0.036-0.066-0.091-0.121-0.156-0.156l-1.36-0.744c-0.065-0.035-0.119-0.09-0.155-0.154
	c-0.105-0.191-0.036-0.432,0.155-0.537l1.36-0.742c0.065-0.037,0.12-0.092,0.156-0.158l0.743-1.359
	c0.036-0.066,0.091-0.121,0.157-0.158c0.191-0.104,0.431-0.033,0.535,0.158l0.743,1.359c0.036,0.066,0.09,0.121,0.155,0.158
	l1.36,0.742c0.065,0.035,0.119,0.09,0.155,0.156c0.105,0.189,0.036,0.43-0.155,0.535l-1.36,0.746"/>
<path class="star_54" fill="none" stroke="#A133FF" stroke-width="1.097" stroke-linecap="round" stroke-linejoin="round" d="M221.249,383
	c-0.065,0.036-0.121,0.09-0.158,0.155l-0.743,1.36c-0.036,0.065-0.091,0.119-0.155,0.155c-0.191,0.105-0.432,0.036-0.537-0.155
	l-0.742-1.36c-0.037-0.065-0.092-0.119-0.158-0.154l-1.359-0.744c-0.065-0.036-0.119-0.09-0.155-0.155
	c-0.105-0.191-0.036-0.432,0.155-0.537l1.359-0.743c0.066-0.036,0.121-0.09,0.158-0.156l0.742-1.36
	c0.037-0.066,0.092-0.121,0.158-0.157c0.19-0.104,0.43-0.034,0.534,0.157l0.743,1.36c0.035,0.065,0.09,0.12,0.156,0.156l1.359,0.743
	c0.065,0.036,0.119,0.09,0.155,0.155c0.105,0.191,0.036,0.432-0.155,0.537l-1.359,0.745"/>
<path class="star_55" fill="none" stroke="#A133FF" stroke-width="1.097" stroke-linecap="round" stroke-linejoin="round" d="M1649.248,453
	c-0.064,0.036-0.119,0.09-0.156,0.156l-0.744,1.359c-0.036,0.065-0.09,0.12-0.156,0.155c-0.19,0.105-0.431,0.036-0.536-0.155
	l-0.743-1.359c-0.036-0.066-0.091-0.12-0.156-0.155l-1.36-0.744c-0.065-0.036-0.119-0.09-0.155-0.155
	c-0.105-0.191-0.036-0.432,0.155-0.537l1.36-0.742c0.065-0.036,0.12-0.091,0.156-0.157l0.743-1.36
	c0.036-0.066,0.091-0.121,0.157-0.157c0.191-0.104,0.431-0.033,0.535,0.157l0.743,1.36c0.036,0.065,0.09,0.12,0.155,0.157
	l1.36,0.742c0.065,0.036,0.119,0.091,0.155,0.156c0.105,0.19,0.036,0.431-0.155,0.536l-1.36,0.745"/>
<path class="star_56" fill="none" stroke="#A133FF" stroke-width="1.097" stroke-linecap="round" stroke-linejoin="round" d="M428.856,447.167
	l0.887,3.555l-3.554-0.889L428.856,447.167z"/>
<path class="star_57" fill="none" stroke="#A133FF" stroke-width="1.097" stroke-linecap="round" stroke-linejoin="round" d="M546.167,795.604
	c-0.066,0.037-0.119,0.09-0.156,0.156l-1.507,2.756c-0.036,0.066-0.09,0.119-0.155,0.154c-0.19,0.105-0.43,0.037-0.535-0.154
	l-1.508-2.754c-0.037-0.066-0.091-0.121-0.157-0.156l-2.755-1.508c-0.066-0.037-0.121-0.092-0.157-0.158
	c-0.104-0.189-0.033-0.428,0.157-0.533l2.755-1.506c0.066-0.037,0.12-0.09,0.157-0.156l1.507-2.756
	c0.036-0.068,0.092-0.123,0.159-0.16c0.191-0.104,0.43-0.031,0.533,0.16l1.506,2.756c0.036,0.066,0.091,0.119,0.157,0.156
	l2.756,1.508c0.064,0.035,0.118,0.09,0.154,0.154c0.105,0.191,0.036,0.43-0.154,0.535l-2.754,1.508"/>
<path class="star_58" fill="none" stroke="#A133FF" stroke-width="1.097" stroke-linecap="round" stroke-linejoin="round" d="M193.167,708.604
	c-0.065,0.037-0.119,0.09-0.156,0.156l-1.506,2.756c-0.037,0.066-0.09,0.119-0.155,0.154c-0.19,0.105-0.431,0.037-0.535-0.154
	l-1.508-2.754c-0.037-0.066-0.091-0.121-0.157-0.156l-2.754-1.508c-0.066-0.037-0.121-0.092-0.156-0.158
	c-0.104-0.189-0.034-0.428,0.156-0.533l2.752-1.506c0.066-0.037,0.123-0.09,0.16-0.156l1.507-2.756
	c0.036-0.066,0.091-0.121,0.157-0.156c0.189-0.105,0.429-0.035,0.533,0.156l1.506,2.756c0.037,0.066,0.091,0.119,0.156,0.156
	l2.756,1.508c0.066,0.035,0.119,0.09,0.155,0.154c0.104,0.191,0.036,0.43-0.155,0.535l-2.754,1.508"/>
<path class="star_59" fill="none" stroke="#7B63AB" stroke-width="1.097" stroke-linecap="round" stroke-linejoin="round" d="M1678.248,719
	c-0.064,0.035-0.119,0.09-0.156,0.156l-0.744,1.359c-0.036,0.064-0.09,0.119-0.156,0.154c-0.19,0.105-0.431,0.037-0.536-0.154
	l-0.743-1.359c-0.036-0.066-0.091-0.121-0.156-0.156l-1.36-0.744c-0.065-0.035-0.119-0.09-0.155-0.154
	c-0.105-0.191-0.036-0.432,0.155-0.537l1.36-0.742c0.065-0.037,0.12-0.092,0.156-0.158l0.743-1.359
	c0.036-0.066,0.091-0.121,0.157-0.158c0.191-0.104,0.431-0.033,0.535,0.158l0.743,1.359c0.036,0.066,0.09,0.121,0.155,0.158
	l1.36,0.742c0.065,0.035,0.119,0.09,0.155,0.156c0.105,0.189,0.036,0.43-0.155,0.535l-1.36,0.746"/>
<path class="star_60" fill="none" stroke="#A133FF" stroke-width="1.097" stroke-linecap="round" stroke-linejoin="round" d="M1400.171,352.602
	c-0.068,0.036-0.122,0.091-0.16,0.158l-1.509,2.756c-0.035,0.066-0.09,0.121-0.156,0.157c-0.19,0.104-0.43,0.033-0.533-0.157
	l-1.506-2.755c-0.036-0.066-0.091-0.121-0.157-0.157l-2.755-1.507c-0.066-0.036-0.121-0.091-0.156-0.157
	c-0.104-0.19-0.034-0.429,0.156-0.533l2.755-1.507c0.067-0.035,0.122-0.09,0.158-0.155l1.506-2.756
	c0.036-0.067,0.092-0.123,0.159-0.159c0.191-0.103,0.43-0.031,0.533,0.159l1.505,2.756c0.036,0.065,0.091,0.12,0.157,0.155
	l2.755,1.507c0.064,0.036,0.118,0.09,0.154,0.155c0.105,0.19,0.036,0.43-0.154,0.535l-2.755,1.507"/>
<path class="star_61" fill="none" stroke="#A133FF" stroke-width="1.097" stroke-linecap="round" stroke-linejoin="round" d="M1509.248,429
	c-0.064,0.036-0.119,0.09-0.156,0.155l-0.744,1.36c-0.036,0.065-0.09,0.119-0.156,0.155c-0.19,0.105-0.431,0.036-0.536-0.155
	l-0.743-1.36c-0.036-0.065-0.091-0.119-0.156-0.154l-1.36-0.744c-0.065-0.036-0.119-0.09-0.155-0.155
	c-0.105-0.191-0.036-0.432,0.155-0.537l1.36-0.743c0.065-0.036,0.12-0.09,0.156-0.156l0.743-1.36
	c0.036-0.066,0.091-0.121,0.157-0.157c0.191-0.104,0.431-0.034,0.535,0.157l0.743,1.36c0.036,0.065,0.09,0.12,0.155,0.156
	l1.36,0.743c0.065,0.036,0.119,0.09,0.155,0.155c0.105,0.191,0.036,0.432-0.155,0.537l-1.36,0.745"/>
<g>
	<path class="star_62" fill="none" stroke="#7B63AB" stroke-width="1.097" stroke-linecap="round" stroke-linejoin="round" d="M84.189,321.252
		l1.472,1.47 M88.189,325.252l1.47,1.47 M85.732,325.179c0.724,0.724,1.896,0.724,2.62,0s0.724-1.896,0-2.62s-1.896-0.724-2.62,0
		S85.008,324.455,85.732,325.179z"/>
</g>
<path class="star_63" fill="none" stroke="#A133FF" stroke-width="1.097" stroke-linecap="round" stroke-linejoin="round" d="M221.249,41.819
	c-0.066-0.036-0.121-0.09-0.158-0.155l-0.743-1.36c-0.15-0.273-0.542-0.273-0.692,0l-0.742,1.36
	c-0.037,0.065-0.092,0.118-0.158,0.155l-1.359,0.745c-0.065,0.036-0.119,0.09-0.155,0.155c-0.105,0.191-0.036,0.432,0.155,0.537
	l1.359,0.742c0.066,0.036,0.121,0.091,0.158,0.157l0.742,1.36c0.037,0.066,0.092,0.121,0.158,0.157
	c0.19,0.104,0.43,0.034,0.534-0.157l0.743-1.36c0.036-0.065,0.09-0.119,0.156-0.155l1.359-0.743c0.065-0.036,0.119-0.09,0.155-0.155
	c0.105-0.191,0.036-0.432-0.155-0.537l-1.359-0.744"/>
<path class="star_64" fill="none" stroke="#7B63AB" stroke-width="1.097" stroke-linecap="round" stroke-linejoin="round" d="M428.856-56.278
	l0.887-3.554l-3.554,0.888L428.856-56.278z"/>
<path class="star_65" fill="none" stroke="#A133FF" stroke-width="1.097" stroke-linecap="round" stroke-linejoin="round" d="M1400.171,64.9
	c-0.067-0.036-0.124-0.091-0.16-0.157l-1.509-2.756c-0.146-0.273-0.539-0.273-0.689,0l-1.506,2.754
	c-0.036,0.066-0.091,0.121-0.157,0.157l-2.755,1.508c-0.066,0.036-0.121,0.091-0.156,0.157c-0.104,0.19-0.034,0.43,0.156,0.533
	l2.755,1.507c0.067,0.036,0.122,0.091,0.158,0.157l1.506,2.755c0.036,0.067,0.092,0.123,0.159,0.16
	c0.191,0.103,0.43,0.031,0.533-0.16l1.505-2.755c0.036-0.066,0.091-0.12,0.157-0.156l2.755-1.506
	c0.066-0.036,0.121-0.091,0.157-0.157c0.104-0.191,0.033-0.431-0.157-0.535l-2.755-1.507"/>
<path class="star_66" fill="none" stroke="#A133FF" stroke-width="1.097" stroke-linecap="round" stroke-linejoin="round" d="M1509.248-38.181
	c-0.065-0.036-0.12-0.09-0.156-0.155l-0.744-1.36c-0.15-0.273-0.542-0.273-0.692,0l-0.743,1.36
	c-0.037,0.065-0.091,0.118-0.156,0.155l-1.36,0.745c-0.065,0.036-0.119,0.09-0.155,0.155c-0.105,0.191-0.036,0.432,0.155,0.537
	l1.36,0.742c0.066,0.036,0.12,0.091,0.156,0.157l0.743,1.36c0.036,0.066,0.091,0.121,0.157,0.157
	c0.191,0.104,0.431,0.034,0.535-0.157l0.743-1.36c0.036-0.065,0.09-0.119,0.155-0.155l1.36-0.743
	c0.065-0.036,0.119-0.09,0.155-0.155c0.105-0.191,0.036-0.432-0.155-0.537l-1.36-0.744"/>
<g>
	<path class="star_67" fill="none" stroke="#A133FF" stroke-width="1.097" stroke-linecap="round" stroke-linejoin="round" d="M84.189,116.191
		l1.472-1.47 M88.189,112.191l1.47-1.47 M85.732,114.885c-0.724-0.724-0.724-1.896,0-2.62s1.896-0.724,2.62,0s0.724,1.896,0,2.62
		S86.456,115.608,85.732,114.885L85.732,114.885z"/>
</g>
<path class="star_68" fill="none" stroke="#A133FF" stroke-width="1.097" stroke-linecap="round" stroke-linejoin="round" d="M1156.248,510
	c-0.064,0.036-0.119,0.09-0.156,0.155l-0.744,1.36c-0.036,0.065-0.09,0.119-0.156,0.155c-0.19,0.105-0.431,0.036-0.536-0.155
	l-0.743-1.36c-0.036-0.065-0.091-0.119-0.156-0.154l-1.36-0.744c-0.065-0.036-0.119-0.09-0.155-0.155
	c-0.105-0.191-0.036-0.432,0.155-0.537l1.36-0.743c0.065-0.036,0.12-0.09,0.156-0.156l0.743-1.36
	c0.036-0.066,0.091-0.121,0.157-0.157c0.191-0.104,0.431-0.034,0.535,0.157l0.743,1.36c0.036,0.065,0.09,0.12,0.155,0.156
	l1.36,0.743c0.065,0.036,0.119,0.09,0.155,0.155c0.105,0.191,0.036,0.432-0.155,0.537l-1.36,0.745"/>
<path class="star_69" fill="none" stroke="#A133FF" stroke-width="1.097" stroke-linecap="round" stroke-linejoin="round" d="M1070.248,331
	c-0.064,0.036-0.119,0.09-0.156,0.155l-0.744,1.36c-0.036,0.065-0.09,0.119-0.156,0.155c-0.19,0.105-0.431,0.036-0.536-0.155
	l-0.743-1.36c-0.036-0.065-0.091-0.119-0.156-0.154l-1.36-0.744c-0.065-0.036-0.119-0.09-0.155-0.155
	c-0.105-0.191-0.036-0.432,0.155-0.537l1.36-0.743c0.065-0.036,0.12-0.09,0.156-0.156l0.743-1.36
	c0.036-0.066,0.091-0.121,0.157-0.157c0.191-0.104,0.431-0.034,0.535,0.157l0.743,1.36c0.036,0.065,0.09,0.12,0.155,0.156
	l1.36,0.743c0.065,0.036,0.119,0.09,0.155,0.155c0.105,0.191,0.036,0.432-0.155,0.537l-1.36,0.745"/>
<path class="star_70" fill="none" stroke="#A133FF" stroke-width="1.097" stroke-linecap="round" stroke-linejoin="round" d="M1237.027,161.312
	c-0.064,0.036-0.119,0.09-0.156,0.155l-0.744,1.36c-0.036,0.065-0.09,0.119-0.156,0.155c-0.19,0.105-0.431,0.036-0.536-0.155
	l-0.743-1.36c-0.036-0.065-0.091-0.119-0.156-0.154l-1.36-0.744c-0.065-0.036-0.119-0.09-0.155-0.155
	c-0.105-0.191-0.036-0.432,0.155-0.537l1.36-0.743c0.065-0.036,0.12-0.09,0.156-0.156l0.743-1.36
	c0.036-0.066,0.091-0.121,0.157-0.157c0.191-0.104,0.431-0.034,0.535,0.157l0.743,1.36c0.036,0.065,0.09,0.12,0.155,0.156
	l1.36,0.743c0.065,0.036,0.119,0.09,0.155,0.155c0.105,0.191,0.036,0.432-0.155,0.537l-1.36,0.745"/>
<path class="star_71" fill="none" stroke="#A133FF" stroke-width="1.097" stroke-linecap="round" stroke-linejoin="round" d="M1234.218,402.746
	c-0.064,0.036-0.119,0.09-0.156,0.155l-0.744,1.36c-0.036,0.065-0.09,0.119-0.156,0.155c-0.19,0.105-0.431,0.036-0.536-0.155
	l-0.743-1.36c-0.036-0.065-0.091-0.119-0.156-0.154l-1.36-0.744c-0.065-0.036-0.119-0.09-0.155-0.155
	c-0.105-0.191-0.036-0.432,0.155-0.537l1.36-0.743c0.065-0.036,0.12-0.09,0.156-0.156l0.743-1.36
	c0.036-0.066,0.091-0.121,0.157-0.157c0.191-0.104,0.431-0.034,0.535,0.157l0.743,1.36c0.036,0.065,0.09,0.12,0.155,0.156
	l1.36,0.743c0.065,0.036,0.119,0.09,0.155,0.155c0.105,0.191,0.036,0.432-0.155,0.537l-1.36,0.745"/>
<path class="star_72" fill="none" stroke="#A133FF" stroke-width="1.097" stroke-linecap="round" stroke-linejoin="round" d="M971.438,448.257
	c-0.064,0.037-0.119,0.09-0.156,0.156l-0.744,1.359c-0.036,0.066-0.09,0.119-0.156,0.156c-0.19,0.105-0.431,0.035-0.536-0.156
	l-0.743-1.359c-0.036-0.066-0.091-0.119-0.156-0.154l-1.36-0.744c-0.065-0.037-0.119-0.09-0.155-0.156
	c-0.105-0.191-0.036-0.432,0.155-0.537l1.36-0.742c0.065-0.037,0.12-0.09,0.156-0.156l0.743-1.361
	c0.036-0.066,0.091-0.121,0.157-0.156c0.191-0.105,0.431-0.035,0.535,0.156l0.743,1.361c0.036,0.064,0.09,0.119,0.155,0.156
	l1.36,0.742c0.065,0.037,0.119,0.09,0.155,0.156c0.105,0.191,0.036,0.432-0.155,0.537l-1.36,0.744"/>
<g transform="translate(1598 622)">
	<defs>
		<filter id="Adobe_OpacityMaskFilter_3_" filterUnits="userSpaceOnUse" x="-21.742" y="-137.304" width="9.938" height="9.937">
			<feColorMatrix  type="matrix" values="1 0 0 0 0  0 1 0 0 0  0 0 1 0 0  0 0 0 1 0"/>
		</filter>
	</defs>
	<mask maskUnits="userSpaceOnUse" x="-21.742" y="-137.304" width="9.938" height="9.937" id="d_1_">
		<g filter="url(#Adobe_OpacityMaskFilter_3_)">
			<path class="star_73" id="c_1_" fill="#FFFFFF" d="M-21.741-137.303h9.938v9.938h-9.938V-137.303z"/>
		</g>
	</mask>
	<path class="star_74" mask="url(#d_1_)" fill="#0088E3" d="M-14.763-134.187l2.755,1.507c0.19,0.104,0.26,0.345,0.154,0.535
		c-0.036,0.065-0.09,0.118-0.154,0.154l-2.755,1.51c-0.066,0.036-0.121,0.091-0.157,0.157l-1.506,2.753
		c-0.105,0.19-0.345,0.26-0.536,0.155c-0.064-0.036-0.118-0.09-0.154-0.155l-1.51-2.755c-0.036-0.066-0.091-0.121-0.157-0.157
		l-2.755-1.508c-0.19-0.104-0.26-0.345-0.154-0.535c0.035-0.065,0.089-0.119,0.154-0.154l2.757-1.507
		c0.066-0.037,0.12-0.091,0.156-0.157l1.507-2.756c0.105-0.191,0.345-0.26,0.535-0.155c0.065,0.036,0.119,0.09,0.155,0.155
		l1.508,2.756C-14.884-134.277-14.829-134.223-14.763-134.187"/>
</g>
<path class="star_75" fill="#0088E3" d="M1184.401,994.906c0-1.605-1.303-2.907-2.908-2.906c-1.606,0.001-2.907,1.304-2.906,2.909l0,0
	c0.001,1.605,1.304,2.906,2.909,2.905C1183.103,997.813,1184.403,996.511,1184.401,994.906"/>
<path class="star_76" fill="#0088E3" d="M1433.567,923.822l2.755-1.506c0.191-0.105,0.261-0.345,0.156-0.536c-0.036-0.066-0.091-0.121-0.156-0.157
	l-2.755-1.507c-0.066-0.036-0.121-0.09-0.156-0.156l-1.506-2.755c-0.104-0.191-0.342-0.263-0.533-0.16
	c-0.067,0.037-0.123,0.093-0.159,0.16l-1.506,2.755c-0.037,0.066-0.093,0.121-0.16,0.156l-2.753,1.507
	c-0.191,0.104-0.262,0.344-0.158,0.534c0.037,0.067,0.092,0.122,0.158,0.158l2.755,1.507c0.066,0.035,0.122,0.09,0.158,0.156
	l1.506,2.754c0.149,0.273,0.543,0.273,0.689,0l1.509-2.756C1433.447,923.911,1433.501,923.856,1433.567,923.822"/>
<path class="star_77" fill="none" stroke="#A133FF" stroke-width="1.097" stroke-linecap="round" stroke-linejoin="round" d="M1379.646,947.9
	l1.36-0.743c0.191-0.105,0.261-0.346,0.155-0.537c-0.036-0.065-0.09-0.119-0.155-0.155l-1.36-0.744
	c-0.065-0.036-0.119-0.09-0.155-0.154l-0.743-1.36c-0.105-0.191-0.346-0.261-0.537-0.155c-0.065,0.036-0.119,0.09-0.155,0.155
	l-0.743,1.36c-0.036,0.065-0.091,0.119-0.156,0.155l-1.36,0.745c-0.191,0.105-0.261,0.346-0.155,0.537
	c0.036,0.065,0.09,0.119,0.155,0.155l1.36,0.743c0.065,0.035,0.119,0.09,0.156,0.156l0.743,1.36c0.15,0.272,0.542,0.272,0.692,0
	l0.744-1.36c0.036-0.065,0.091-0.12,0.156-0.156"/>
<path class="star_78" fill="#0088E3" d="M1668.567,972.822l2.755-1.506c0.191-0.105,0.261-0.345,0.156-0.536c-0.036-0.066-0.091-0.121-0.156-0.157
	l-2.755-1.507c-0.066-0.036-0.121-0.09-0.156-0.156l-1.506-2.755c-0.104-0.191-0.342-0.263-0.533-0.16
	c-0.067,0.037-0.123,0.093-0.159,0.16l-1.506,2.755c-0.037,0.066-0.093,0.121-0.16,0.156l-2.753,1.507
	c-0.191,0.104-0.262,0.344-0.158,0.534c0.037,0.067,0.092,0.122,0.158,0.158l2.755,1.507c0.066,0.035,0.122,0.09,0.158,0.156
	l1.506,2.754c0.149,0.273,0.543,0.273,0.689,0l1.509-2.756C1668.447,972.911,1668.501,972.856,1668.567,972.822"/>
<path class="star_79" fill="none" stroke="#A133FF" stroke-width="1.097" stroke-linecap="round" stroke-linejoin="round" d="M1614.646,1017.9
	l1.36-0.743c0.191-0.105,0.261-0.346,0.155-0.537c-0.036-0.065-0.09-0.119-0.155-0.155l-1.36-0.744
	c-0.065-0.036-0.119-0.09-0.155-0.154l-0.743-1.36c-0.105-0.191-0.346-0.261-0.537-0.155c-0.065,0.036-0.119,0.09-0.155,0.155
	l-0.743,1.36c-0.036,0.065-0.091,0.119-0.156,0.155l-1.36,0.745c-0.191,0.105-0.261,0.346-0.155,0.537
	c0.036,0.065,0.09,0.119,0.155,0.155l1.36,0.743c0.065,0.035,0.119,0.09,0.156,0.156l0.743,1.36c0.15,0.272,0.542,0.272,0.692,0
	l0.744-1.36c0.036-0.065,0.091-0.12,0.156-0.156"/>
<path class="star_80" fill="#FCD05C" d="M1640.646,1111.9l1.36-0.743c0.191-0.105,0.261-0.346,0.155-0.537c-0.036-0.065-0.09-0.119-0.155-0.155
	l-1.36-0.743c-0.065-0.036-0.119-0.091-0.155-0.157l-0.743-1.359c-0.104-0.191-0.344-0.262-0.535-0.158
	c-0.066,0.037-0.121,0.092-0.157,0.158l-0.743,1.359c-0.036,0.066-0.091,0.121-0.156,0.157l-1.36,0.743
	c-0.191,0.105-0.261,0.346-0.155,0.537c0.036,0.065,0.09,0.119,0.155,0.155l1.36,0.744c0.065,0.036,0.119,0.09,0.156,0.156
	l0.743,1.36c0.15,0.273,0.542,0.273,0.692,0l0.744-1.36c0.036-0.065,0.091-0.12,0.156-0.155"/>
<g transform="matrix(1 0 0 -1 1587 986)">
	<defs>
		<filter id="Adobe_OpacityMaskFilter_4_" filterUnits="userSpaceOnUse" x="-22.349" y="-144.238" width="6.719" height="6.721">
			<feColorMatrix  type="matrix" values="1 0 0 0 0  0 1 0 0 0  0 0 1 0 0  0 0 0 1 0"/>
		</filter>
	</defs>
	<mask maskUnits="userSpaceOnUse" x="-22.349" y="-144.238" width="6.719" height="6.721" id="f_1_">
		<g filter="url(#Adobe_OpacityMaskFilter_4_)">
			<path class="star_81" id="e_1_" fill="#FFFFFF" d="M-16.181,138.067v5.623h-5.62v-5.624L-16.181,138.067L-16.181,138.067z"/>
		</g>
	</mask>
	<path class="star_82" mask="url(#f_1_)" fill="none" stroke="#A133FF" stroke-width="1.097" stroke-linecap="round" stroke-linejoin="round" d="
		M-17.744,139.79l1.36,0.743c0.19,0.104,0.262,0.343,0.157,0.534c-0.036,0.066-0.091,0.121-0.157,0.157l-1.36,0.743
		c-0.065,0.036-0.12,0.091-0.157,0.156l-0.743,1.36c-0.104,0.19-0.343,0.262-0.534,0.157c-0.066-0.036-0.121-0.091-0.157-0.157
		l-0.744-1.36c-0.036-0.065-0.09-0.12-0.155-0.156l-1.359-0.743c-0.191-0.104-0.261-0.345-0.156-0.536
		c0.036-0.065,0.09-0.119,0.156-0.155l1.359-0.744c0.066-0.036,0.12-0.091,0.156-0.157l0.745-1.36
		c0.104-0.19,0.343-0.261,0.534-0.157c0.066,0.036,0.121,0.091,0.158,0.157l0.742,1.36c0.036,0.066,0.09,0.12,0.157,0.156"/>
</g>
<path class="star_83" fill="#FCD05C" d="M1362.567,632.822l2.755-1.507c0.19-0.104,0.261-0.344,0.157-0.535c-0.036-0.066-0.091-0.121-0.157-0.157
	l-2.755-1.506c-0.066-0.036-0.121-0.09-0.157-0.156l-1.505-2.755c-0.104-0.191-0.342-0.263-0.533-0.16
	c-0.067,0.037-0.123,0.093-0.159,0.16l-1.506,2.755c-0.036,0.066-0.091,0.121-0.158,0.157l-2.755,1.507
	c-0.19,0.104-0.261,0.343-0.156,0.533c0.035,0.066,0.09,0.121,0.156,0.157l2.755,1.508c0.066,0.036,0.121,0.091,0.157,0.157
	l1.506,2.754c0.15,0.273,0.543,0.273,0.689,0l1.509-2.756c0.036-0.066,0.093-0.121,0.16-0.157"/>
<path class="star_84" fill="#0088E3" d="M1251.466,824.727l1.3-0.71c0.183-0.101,0.249-0.33,0.147-0.512c-0.034-0.062-0.085-0.113-0.147-0.147
	l-1.3-0.713c-0.063-0.034-0.115-0.086-0.15-0.149l-0.71-1.3c-0.101-0.183-0.329-0.249-0.512-0.148
	c-0.062,0.035-0.113,0.086-0.147,0.148l-0.711,1.3c-0.035,0.063-0.088,0.115-0.151,0.149l-1.3,0.711
	c-0.184,0.1-0.251,0.328-0.15,0.511c0.034,0.063,0.086,0.116,0.15,0.15l1.3,0.71c0.062,0.035,0.114,0.088,0.149,0.15l0.711,1.3
	c0.098,0.183,0.326,0.251,0.509,0.153c0.064-0.035,0.118-0.088,0.152-0.153l0.71-1.3
	C1251.351,824.814,1251.402,824.762,1251.466,824.727"/>
<path class="star_85" fill="#FCD05C" d="M1471.646,735.9l1.36-0.744c0.191-0.105,0.261-0.346,0.155-0.537c-0.036-0.065-0.09-0.119-0.155-0.155
	l-1.36-0.743c-0.065-0.036-0.119-0.09-0.155-0.155l-0.743-1.36c-0.104-0.191-0.344-0.262-0.535-0.157
	c-0.066,0.036-0.121,0.091-0.157,0.157l-0.743,1.36c-0.036,0.066-0.09,0.121-0.156,0.157l-1.36,0.742
	c-0.191,0.105-0.261,0.346-0.155,0.537c0.036,0.065,0.09,0.119,0.155,0.155l1.36,0.745c0.065,0.037,0.119,0.09,0.156,0.155
	l0.743,1.36c0.15,0.273,0.542,0.273,0.692,0l0.744-1.36c0.036-0.065,0.091-0.119,0.156-0.155"/>
<path class="star_86" fill="none" stroke="#A133FF" stroke-width="1.097" stroke-linecap="round" stroke-linejoin="round" d="M1486.868,531.001
	l-1.359-0.744c-0.191-0.105-0.261-0.346-0.155-0.537c0.036-0.065,0.09-0.119,0.155-0.155l1.359-0.743
	c0.066-0.036,0.121-0.091,0.156-0.157l0.743-1.359c0.104-0.191,0.344-0.262,0.534-0.158c0.066,0.037,0.121,0.092,0.158,0.158
	l0.742,1.359c0.037,0.066,0.092,0.121,0.158,0.157l1.359,0.743c0.191,0.105,0.261,0.346,0.155,0.536
	c-0.036,0.065-0.09,0.12-0.155,0.156L1489.36,531c-0.066,0.036-0.121,0.09-0.158,0.155l-0.742,1.36
	c-0.105,0.19-0.346,0.261-0.537,0.155c-0.064-0.036-0.119-0.09-0.155-0.155l-0.743-1.36c-0.037-0.065-0.093-0.12-0.158-0.156"/>
<path class="star_87" fill="none" stroke="#A133FF" stroke-width="1.097" stroke-linecap="round" stroke-linejoin="round" d="M1194.945,657.605
	l-2.754-1.508c-0.189-0.105-0.26-0.344-0.154-0.535c0.037-0.064,0.09-0.119,0.154-0.154l2.756-1.508
	c0.066-0.037,0.121-0.09,0.158-0.156l1.506-2.756c0.104-0.191,0.342-0.264,0.533-0.16c0.066,0.037,0.123,0.092,0.158,0.16
	l1.508,2.756c0.037,0.066,0.09,0.119,0.156,0.156l2.756,1.506c0.189,0.105,0.26,0.344,0.156,0.533
	c-0.035,0.066-0.09,0.121-0.156,0.158l-2.756,1.508c-0.066,0.035-0.119,0.09-0.156,0.156l-1.508,2.754
	c-0.105,0.191-0.346,0.26-0.535,0.154c-0.066-0.035-0.119-0.088-0.156-0.154l-1.506-2.756c-0.037-0.066-0.09-0.119-0.156-0.156"/>
<path class="star_88" fill="none" stroke="#A133FF" stroke-width="1.097" stroke-linecap="round" stroke-linejoin="round" d="M1547.946,570.605
	l-2.754-1.508c-0.191-0.105-0.26-0.344-0.155-0.535c0.036-0.064,0.089-0.119,0.155-0.154l2.756-1.508
	c0.065-0.037,0.119-0.09,0.156-0.156l1.506-2.756c0.104-0.191,0.344-0.262,0.533-0.156c0.066,0.035,0.121,0.09,0.157,0.156
	l1.507,2.756c0.037,0.066,0.094,0.119,0.16,0.156l2.752,1.506c0.19,0.105,0.261,0.344,0.156,0.533
	c-0.035,0.066-0.09,0.121-0.156,0.158l-2.754,1.508c-0.066,0.035-0.12,0.09-0.157,0.156l-1.508,2.754
	c-0.104,0.191-0.345,0.26-0.535,0.154c-0.065-0.035-0.118-0.088-0.155-0.154l-1.506-2.756c-0.037-0.066-0.091-0.119-0.156-0.156"/>
</svg>
